<svg xmlns="http://www.w3.org/2000/svg">
 <symbol id="icon-calendar" viewBox="0 0 24 30">
  <path d="M21.496 24H2.504C1.124 24 0 22.877 0 21.496V4.505C0 3.124 1.124 2 2.505 2h18.99C22.876 2 24 3.124 24 4.505v16.991C24 22.877 22.877 24 21.496 24zM2.505 4C2.227 4 2 4.227 2 4.505v16.991c0 .278.226.504.504.504h18.992c.278 0 .504-.226.504-.504V4.505c0-.278-.227-.505-.505-.505H2.505zM23 8H1c-.552 0-1-.448-1-1s.448-1 1-1h22c.553 0 1 .448 1 1s-.447 1-1 1zM5 5c-.552 0-1-.448-1-1V1c0-.552.448-1 1-1s1 .448 1 1v3c0 .552-.448 1-1 1zm14 0c-.553 0-1-.448-1-1V1c0-.552.447-1 1-1s1 .448 1 1v3c0 .552-.447 1-1 1z"/>
  <circle cx="6" cy="19" r="1"/>
  <circle cx="6" cy="15" r="1"/>
  <circle cx="9" cy="19" r="1"/>
  <circle cx="9" cy="15" r="1"/>
  <circle cx="9" cy="11" r="1"/>
  <circle cx="15" cy="19" r="1"/>
  <circle cx="15" cy="15" r="1"/>
  <circle cx="15" cy="11" r="1"/>
  <circle cx="18" cy="15" r="1"/>
  <circle cx="18" cy="11" r="1"/>
  <circle cx="12" cy="19" r="1"/>
  <circle cx="12" cy="15" r="1"/>
  <circle cx="12" cy="11" r="1"/>
 </symbol>
 <symbol id="icon-tags" viewBox="0 0 24 30">  
  <path d="M13 23.586c-.534 0-1.037-.208-1.414-.586l-1.293-1.293c-.391-.391-.391-1.023 0-1.414.39-.391 1.023-.391 1.414 0L13 21.586l9-9V6c-.553 0-.999-.447-.999-1 0-.553.447-1 1-1C23.104 4 24 4.897 24 6v6.586c0 .534-.208 1.036-.586 1.414l-9 9c-.378.378-.88.586-1.414.586zM8.582 20c-.537 0-1.042-.21-1.421-.59L.588 12.838C.209 12.459 0 11.955 0 11.418s.209-1.041.588-1.42L9.999.587C10.377.208 10.881 0 11.416 0h6.58C19.101 0 20 .899 20 2.004v6.58c0 .536-.209 1.04-.588 1.418l-9.41 9.409c-.378.38-.883.589-1.42.589zm2.834-18l-9.414 9.412 6.574 6.585.003.003 9.42-9.413L18 2.004 11.416 2z"/>
  <circle cx="15" cy="5" r="1"/>
  <path d="M7 12c-.256 0-.512-.098-.707-.293-.391-.391-.391-1.023 0-1.414l5-5c.391-.391 1.023-.391 1.414 0s.391 1.023 0 1.414l-5 5C7.512 11.902 7.256 12 7 12zm2 2c-.256 0-.512-.098-.707-.293-.391-.391-.391-1.023 0-1.414l5-5c.391-.391 1.023-.391 1.414 0s.391 1.023 0 1.414l-5 5C9.512 13.902 9.256 14 9 14z"/>
 </symbol>
 <symbol id="icon-dq" viewBox="0 0 24 30">
  <path d="M21.496 24H2.504C1.124 24 0 22.877 0 21.496V4.505C0 3.124 1.124 2 2.505 2h18.99C22.876 2 24 3.124 24 4.505v16.991C24 22.877 22.877 24 21.496 24zM2.505 4C2.227 4 2 4.227 2 4.505v16.991c0 .278.226.504.504.504h18.992c.278 0 .504-.226.504-.504V4.505c0-.278-.227-.505-.505-.505H2.505zM23 8H1c-.552 0-1-.448-1-1s.448-1 1-1h22c.553 0 1 .448 1 1s-.447 1-1 1zM5 5c-.552 0-1-.448-1-1V1c0-.552.448-1 1-1s1 .448 1 1v3c0 .552-.448 1-1 1zm14 0c-.553 0-1-.448-1-1V1c0-.552.447-1 1-1s1 .448 1 1v3c0 .552-.447 1-1 1z"/>
 </symbol>
 <symbol id="icon-pyramid" viewBox="0 0 100 100">  
  <path d="M94.361 58.33l-43-48c-.48-.53-1.16-.84-1.871-.83-.72 0-1.4.31-1.87.85l-42 48c-.48.551-.69 1.271-.6 1.98.1.71.49 1.35 1.09 1.75l42 28c.42.28.91.42 1.39.42.47 0 .951-.13 1.361-.41l43-28c.619-.39 1.02-1.04 1.119-1.76.09-.73-.13-1.45-.619-2zm-45.861 26L11.26 59.5 48.5 16.94v67.39zm2 .04V16.86L88.691 59.5 50.5 84.37z"/>
 </symbol>
 <symbol id="icon-loading" viewBox="149.8 37.8 499.818 525">
  <path d="M557.8 187.8c13.8 0 24.601-10.8 24.601-24.6S571.6 138.6 557.8 138.6s-24.6 10.8-24.6 24.6c0 13.2 10.8 24.6 24.6 24.6zm61.2 90.6c-16.8 0-30.6 13.8-30.6 30.6s13.8 30.6 30.6 30.6 30.6-13.8 30.6-30.6c.6-16.8-13.2-30.6-30.6-30.6zm-61.2 145.2c-20.399 0-36.6 16.2-36.6 36.601 0 20.399 16.2 36.6 36.6 36.6 20.4 0 36.601-16.2 36.601-36.6C595 439.8 578.2 423.6 557.8 423.6zM409 476.4c-24 0-43.2 19.199-43.2 43.199s19.2 43.2 43.2 43.2 43.2-19.2 43.2-43.2S433 476.4 409 476.4zM260.8 411c-27 0-49.2 22.2-49.2 49.2s22.2 49.2 49.2 49.2 49.2-22.2 49.2-49.2-22.2-49.2-49.2-49.2zm-10.2-102c0-27.6-22.8-50.4-50.4-50.4-27.6 0-50.4 22.8-50.4 50.4 0 27.6 22.8 50.4 50.4 50.4 27.6 0 50.4-22.2 50.4-50.4zm10.2-199.8c-30 0-54 24-54 54s24 54 54 54 54-24 54-54-24.6-54-54-54zM409 37.8c-35.4 0-63.6 28.8-63.6 63.6S374.2 165 409 165s63.6-28.8 63.6-63.6-28.2-63.6-63.6-63.6z"/>
 </symbol>
</svg>
