<svg xmlns="http://www.w3.org/2000/svg">
 <symbol id="icon-home" viewBox="0 0 24 30">
  <path d="M15 24c-.553 0-1-.447-1-1v-8.004L8.996 15 9 23c0 .553-.448 1-1 1s-1-.447-1-1v-8.004C7 13.896 7.895 13 8.996 13h5.008c1.1 0 1.996.896 1.996 1.996V23c0 .553-.447 1-1 1zm7.003 0H1.998C.896 24 0 23.104 0 22.002V10c0-.3.135-.584.367-.774l11-9c.368-.302.898-.302 1.267 0L18 4.617V2.002C18 .898 18.898 0 20.002 0h1.996C23.102 0 24 .898 24 2.002v20.001C24 23.104 23.104 24 22.003 24zM2 10.474v11.528L22.003 22 22 2.002 20.002 2 20 2.002v4.726c0 .386-.223.738-.572.904-.348.164-.763.115-1.061-.13L12 2.292 2 10.474z"/>
 </symbol>
 <symbol id="icon-home2" viewBox="0 0 24 30">
  <path d="M22.999 8c-.162 0-.326-.039-.478-.122L12 2.139 1.479 7.878c-.485.266-1.091.085-1.357-.399-.265-.485-.086-1.092.399-1.357l11-6c.299-.163.659-.163.958 0l11 6c.485.265.664.872.399 1.357-.182.333-.524.521-.879.521zM21 24H3c-.552 0-1-.447-1-1V9c0-.552.448-1 1-1s1 .448 1 1v13h16V9c0-.552.447-1 1-1s1 .448 1 1v14c0 .553-.447 1-1 1zm-6 0c-.553 0-1-.447-1-1v-8.496c0-.278-.226-.504-.504-.504h-3.242c-.278 0-.504.226-.504.504V23c0 .553-.448 1-1 1s-1-.447-1-1v-8.496C7.75 13.123 8.873 12 10.254 12h3.242C14.877 12 16 13.123 16 14.504V23c0 .553-.447 1-1 1z"/>
 </symbol>
 <symbol id="icon-about" viewBox="0 0 24 28">
  <path d="M23 23v-1.661c0-1.375-.936-2.573-2.269-2.906l-4.966-1.241c-.449-.112-.762-.517-.757-.98l.009-.855c.009-.897.379-1.74.984-2.403 1.968-2.157 1.968-3.874 1.968-5.828C17.969 3.75 15.32 1.061 12 1c-3.32.061-5.969 2.75-5.969 6.125 0 1.954 0 3.671 1.968 5.828.605.663.975 1.506.984 2.403l.009.855c.005.462-.308.868-.757.98l-4.966 1.241C1.936 18.766 1 19.964 1 21.339V23" stroke="#fff" stroke-width="2" stroke-linecap="round" stroke-linejoin="round" stroke-miterlimit="10" fill="none"/>
 </symbol>
 <symbol id="icon-mail" viewBox="0 0 24 28">
  <path d="M22.001 22H1.999C.896 22 0 21.104 0 20.001V4.999C0 3.896.896 3 1.999 3h20.002C23.104 3 24 3.896 24 4.999v15.002C24 21.104 23.104 22 22.001 22zM22 4.999L1.999 5 2 20.001 22.002 20 22 4.999zm-10 9.142c-.468 0-.935-.116-1.361-.349L.521 8.274c-.485-.265-.664-.872-.399-1.357.266-.484.872-.663 1.357-.399l10.117 5.518c.252.138.556.138.81 0l10.116-5.518c.482-.265 1.092-.086 1.356.399s.086 1.092-.399 1.357l-10.116 5.518c-.427.232-.896.349-1.363.349z"/>
 </symbol>
 <symbol id="icon-github" viewBox="0 0 15 18">
  <ellipse cx="5" cy="10.5" rx="1" ry="1.5"/>
  <ellipse cx="11" cy="10.5" rx="1" ry="1.5"/>
  <path d="M14.5 4H14l-1.58606-2.37909a.49747.49747 0 0 0-.82788 0L10 4H6L4.41394 1.62091a.49747.49747 0 0 0-.82788 0L2 4h-.5a.5.5 0 0 0-.5.5v10a.5.5 0 0 0 .5.5h13a.5.5 0 0 0 .5-.5v-10a.5.5 0 0 0-.5-.5zM13 13H3V8h10v5z"/>
 </symbol>
 <symbol id="icon-rss" viewBox="0 0 24 28">
  <path d="M13 20h8.997c.554 0 1.003-.449 1.003-1.003V5.003C23 4.449 22.551 4 21.997 4H2.003C1.449 4 1 4.449 1 5.003V8" stroke="#fff" stroke-width="2" stroke-linecap="round" stroke-linejoin="round" stroke-miterlimit="10" fill="none"/>
  <circle cx="1" cy="20" r="1"/>
  <path d="M1 17c1.657 0 3 1.343 3 3m-3-6c3.314 0 6 2.686 6 6m-6-9c4.971 0 9 4.029 9 9" stroke="#fff" stroke-width="2" stroke-linecap="round" stroke-linejoin="round" stroke-miterlimit="10" fill="none"/></symbol>
 <symbol id="icon-list" viewBox="0 0 24 28">
  <path d="M20.001 24H4c-1.103 0-2-.896-2-1.999V2c0-1.103.897-2 2-2h16.001C21.104 0 22 .897 22 2v20.001C22 23.104 21.104 24 20.001 24zM4 22h16.001L20 2H4v20zm3-6c-.552 0-1 .448-1 1s.448 1 1 1 1-.448 1-1-.448-1-1-1zm0-5c-.552 0-1 .448-1 1s.448 1 1 1 1-.448 1-1-.448-1-1-1zm0-5c-.552 0-1 .448-1 1s.448 1 1 1 1-.448 1-1-.448-1-1-1zm10 2h-6c-.552 0-1-.448-1-1s.448-1 1-1h6c.553 0 1 .448 1 1s-.447 1-1 1zm0 5h-6c-.552 0-1-.448-1-1s.448-1 1-1h6c.553 0 1 .448 1 1s-.447 1-1 1zm0 5h-6c-.552 0-1-.447-1-1s.448-1 1-1h6c.553 0 1 .447 1 1s-.447 1-1 1z"/>
 </symbol>
 <symbol id="icon-terms" viewBox="0 0 24 30">
  <path d="M19 17c-.55 0-1-.45-1-1s.45-1 1-1 1 .45 1 1-.45 1-1 1zm-3 0c-.55 0-1-.45-1-1s.45-1 1-1 1 .45 1 1-.45 1-1 1zm-8 0H5c-.552 0-1-.447-1-1s.448-1 1-1h3c.552 0 1 .447 1 1s-.448 1-1 1zm0-4H5c-.552 0-1-.448-1-1s.448-1 1-1h3c.552 0 1 .448 1 1s-.448 1-1 1zm0-4H5c-.552 0-1-.448-1-1s.448-1 1-1h3c.552 0 1 .448 1 1s-.448 1-1 1zm11 0h-3c-.553 0-1-.448-1-1s.447-1 1-1h3c.553 0 1 .448 1 1s-.447 1-1 1zm0 4h-3c-.553 0-1-.448-1-1s.447-1 1-1h3c.553 0 1 .448 1 1s-.447 1-1 1zm-6.816 10h-.367c-.423 0-.8-.267-.942-.665C10.59 21.536 9.837 21 9 21H2.002C.898 21 0 20.102 0 18.998V4.002C0 2.898.898 2 2.002 2H9c1.169 0 2.256.518 3 1.37.744-.852 1.831-1.37 3-1.37h6.998C23.102 2 24 2.898 24 4.002v14.996C24 20.102 23.102 21 21.998 21H15c-.837 0-1.59.536-1.874 1.335-.142.398-.52.665-.942.665zM2.002 4L2 18.998 9 19c1.169 0 2.256.519 3 1.37.744-.852 1.831-1.37 3-1.37h6.998L22 4.002 21.998 4H15c-.837 0-1.59.537-1.874 1.335-.142.399-.52.665-.942.665h-.367c-.423 0-.8-.266-.942-.665C10.59 4.537 9.837 4 9 4H2.002zM12 22c-.552 0-1-.447-1-1V5c0-.552.448-1 1-1s1 .448 1 1v16c0 .553-.448 1-1 1z"/>
 </symbol>
 <symbol id="icon-rocket" viewBox="0 0 24 30">
  <path d="M9.739 20.272c-.265 0-.52-.105-.707-.293l-5.011-5.012c-.391-.391-.391-1.023 0-1.414L15.07 2.504C16.562 1.012 17.672.372 19.027.222l1.84-.205c.85-.1 1.696.199 2.306.809.609.609.904 1.45.81 2.307l-.204 1.84c-.148 1.338-.811 2.484-2.283 3.957L10.447 19.98c-.189.187-.443.292-.708.292zm-3.597-6.011l3.597 3.598L20.081 7.516c1.31-1.309 1.63-2.051 1.709-2.763l.204-1.84c.038-.342-.131-.568-.235-.672-.104-.104-.333-.269-.671-.235l-1.84.205c-.712.079-1.454.4-2.764 1.709L6.142 14.261zM13.467 24c-.256 0-.512-.098-.707-.293L9.093 20.04c-.391-.391-.391-1.023 0-1.414s1.023-.391 1.414 0l2.96 2.96.764-.764c.277-.277.437-.661.437-1.054v-6.302c0-.552.447-1 1-1s1 .448 1 1v6.302c0 .919-.373 1.818-1.022 2.468l-1.471 1.471c-.196.195-.452.293-.708.293zm-6.234-6.233c-.256 0-.512-.098-.707-.293-.391-.391-.391-1.023 0-1.414l4.767-4.767c.391-.391 1.023-.391 1.414 0s.391 1.023 0 1.414L7.94 17.474c-.195.195-.451.293-.707.293zM1 24c-.277 0-.546-.115-.738-.325-.244-.267-.325-.645-.212-.988l2.169-6.569c.174-.523.74-.812 1.263-.636.524.173.809.738.636 1.263l-1.61 4.877L7.311 20.5c.54-.123 1.076.209 1.201.746.126.538-.208 1.076-.746 1.201l-6.539 1.527L1 24zM20 6c-.256 0-.512-.098-.707-.293l-1-1c-.391-.391-.391-1.023 0-1.414s1.023-.391 1.414 0l1 1c.391.391.391 1.023 0 1.414-.195.195-.451.293-.707.293zM4.667 15.2c-.256 0-.512-.098-.707-.293L.293 11.24c-.391-.391-.391-1.023 0-1.414l1.47-1.47c.659-.659 1.536-1.022 2.469-1.022h6.301c.552 0 1 .448 1 1s-.448 1-1 1H4.232c-.398 0-.773.155-1.055.437l-.763.763 2.959 2.96c.391.391.391 1.023 0 1.414-.195.195-.451.292-.706.292z"/>
 </symbol>
 <symbol id="icon-calendar" viewBox="0 0 24 30">
  <path d="M21.496 24H2.504C1.124 24 0 22.877 0 21.496V4.505C0 3.124 1.124 2 2.505 2h18.99C22.876 2 24 3.124 24 4.505v16.991C24 22.877 22.877 24 21.496 24zM2.505 4C2.227 4 2 4.227 2 4.505v16.991c0 .278.226.504.504.504h18.992c.278 0 .504-.226.504-.504V4.505c0-.278-.227-.505-.505-.505H2.505zM23 8H1c-.552 0-1-.448-1-1s.448-1 1-1h22c.553 0 1 .448 1 1s-.447 1-1 1zM5 5c-.552 0-1-.448-1-1V1c0-.552.448-1 1-1s1 .448 1 1v3c0 .552-.448 1-1 1zm14 0c-.553 0-1-.448-1-1V1c0-.552.447-1 1-1s1 .448 1 1v3c0 .552-.447 1-1 1z"/>
  <circle cx="6" cy="19" r="1"/>
  <circle cx="6" cy="15" r="1"/>
  <circle cx="9" cy="19" r="1"/>
  <circle cx="9" cy="15" r="1"/>
  <circle cx="9" cy="11" r="1"/>
  <circle cx="15" cy="19" r="1"/>
  <circle cx="15" cy="15" r="1"/>
  <circle cx="15" cy="11" r="1"/>
  <circle cx="18" cy="15" r="1"/>
  <circle cx="18" cy="11" r="1"/>
  <circle cx="12" cy="19" r="1"/>
  <circle cx="12" cy="15" r="1"/>
  <circle cx="12" cy="11" r="1"/>
 </symbol>
 <symbol id="icon-tags" viewBox="0 0 24 30">  
  <path d="M13 23.586c-.534 0-1.037-.208-1.414-.586l-1.293-1.293c-.391-.391-.391-1.023 0-1.414.39-.391 1.023-.391 1.414 0L13 21.586l9-9V6c-.553 0-.999-.447-.999-1 0-.553.447-1 1-1C23.104 4 24 4.897 24 6v6.586c0 .534-.208 1.036-.586 1.414l-9 9c-.378.378-.88.586-1.414.586zM8.582 20c-.537 0-1.042-.21-1.421-.59L.588 12.838C.209 12.459 0 11.955 0 11.418s.209-1.041.588-1.42L9.999.587C10.377.208 10.881 0 11.416 0h6.58C19.101 0 20 .899 20 2.004v6.58c0 .536-.209 1.04-.588 1.418l-9.41 9.409c-.378.38-.883.589-1.42.589zm2.834-18l-9.414 9.412 6.574 6.585.003.003 9.42-9.413L18 2.004 11.416 2z"/>
  <circle cx="15" cy="5" r="1"/>
  <path d="M7 12c-.256 0-.512-.098-.707-.293-.391-.391-.391-1.023 0-1.414l5-5c.391-.391 1.023-.391 1.414 0s.391 1.023 0 1.414l-5 5C7.512 11.902 7.256 12 7 12zm2 2c-.256 0-.512-.098-.707-.293-.391-.391-.391-1.023 0-1.414l5-5c.391-.391 1.023-.391 1.414 0s.391 1.023 0 1.414l-5 5C9.512 13.902 9.256 14 9 14z"/>
 </symbol>
 <symbol id="icon-github_v2" viewBox="0 0 32.579 32.58">
  <path fill-rule="evenodd" clip-rule="evenodd" d="M16.289.402C7.294.402 0 7.695 0 16.693c0 7.196 4.667 13.302 11.141 15.456.814.149 1.112-.354 1.112-.785 0-.387-.014-1.411-.022-2.771-4.531.984-5.487-2.184-5.487-2.184-.741-1.882-1.809-2.383-1.809-2.383-1.479-1.011.112-.99.112-.99 1.635.115 2.495 1.679 2.495 1.679 1.453 2.489 3.813 1.771 4.741 1.354.148-1.053.569-1.771 1.034-2.178-3.617-.411-7.42-1.809-7.42-8.051 0-1.778.635-3.232 1.677-4.371-.167-.412-.727-2.068.16-4.311 0 0 1.368-.438 4.479 1.67a15.602 15.602 0 0 1 4.078-.548c1.383.006 2.777.187 4.079.548 3.109-2.108 4.475-1.67 4.475-1.67.889 2.243.33 3.899.162 4.311 1.044 1.139 1.674 2.593 1.674 4.371 0 6.258-3.809 7.635-7.438 8.038.586.503 1.106 1.497 1.106 3.017 0 2.178-.021 3.935-.021 4.469 0 .436.294.942 1.121.783 6.467-2.158 11.13-8.26 11.13-15.454 0-8.998-7.294-16.291-16.29-16.291z"/>
 </symbol>
 <symbol id="icon-pyramid" viewBox="0 0 100 100">  
  <path d="M94.361 58.33l-43-48c-.48-.53-1.16-.84-1.871-.83-.72 0-1.4.31-1.87.85l-42 48c-.48.551-.69 1.271-.6 1.98.1.71.49 1.35 1.09 1.75l42 28c.42.28.91.42 1.39.42.47 0 .951-.13 1.361-.41l43-28c.619-.39 1.02-1.04 1.119-1.76.09-.73-.13-1.45-.619-2zm-45.861 26L11.26 59.5 48.5 16.94v67.39zm2 .04V16.86L88.691 59.5 50.5 84.37z"/>
 </symbol>
 <symbol id="icon-loading" viewBox="149.8 37.8 499.818 525">
  <path d="M557.8 187.8c13.8 0 24.601-10.8 24.601-24.6S571.6 138.6 557.8 138.6s-24.6 10.8-24.6 24.6c0 13.2 10.8 24.6 24.6 24.6zm61.2 90.6c-16.8 0-30.6 13.8-30.6 30.6s13.8 30.6 30.6 30.6 30.6-13.8 30.6-30.6c.6-16.8-13.2-30.6-30.6-30.6zm-61.2 145.2c-20.399 0-36.6 16.2-36.6 36.601 0 20.399 16.2 36.6 36.6 36.6 20.4 0 36.601-16.2 36.601-36.6C595 439.8 578.2 423.6 557.8 423.6zM409 476.4c-24 0-43.2 19.199-43.2 43.199s19.2 43.2 43.2 43.2 43.2-19.2 43.2-43.2S433 476.4 409 476.4zM260.8 411c-27 0-49.2 22.2-49.2 49.2s22.2 49.2 49.2 49.2 49.2-22.2 49.2-49.2-22.2-49.2-49.2-49.2zm-10.2-102c0-27.6-22.8-50.4-50.4-50.4-27.6 0-50.4 22.8-50.4 50.4 0 27.6 22.8 50.4 50.4 50.4 27.6 0 50.4-22.2 50.4-50.4zm10.2-199.8c-30 0-54 24-54 54s24 54 54 54 54-24 54-54-24.6-54-54-54zM409 37.8c-35.4 0-63.6 28.8-63.6 63.6S374.2 165 409 165s63.6-28.8 63.6-63.6-28.2-63.6-63.6-63.6z"/>
 </symbol>
</svg>
